<svg width="114" height="48" viewBox="0 0 114 48" fill="none" xmlns="http://www.w3.org/2000/svg">
<path d="M55.6046 22.9181V24.0948H45.5623V22.9181H55.6046ZM53.4357 22.1612V19.9575H46.3699V18.7834H54.7969V22.1639H53.4383L53.4357 22.1612ZM54.7943 25.21V29.3125H46.3672V25.21H54.7943ZM53.4223 26.3359H47.7285V28.1358H53.4223V26.3359Z" fill="#575756"/>
<path d="M56.8108 24.3142V23.2124H66.8531V24.3142H64.6869V25.368H63.4379V24.3142H60.2287V25.368H58.9664V24.3142H56.8108ZM64.4649 27.5128C64.4649 27.8471 64.3954 28.1654 64.2563 28.4676C64.1172 28.7698 63.9247 29.0319 63.6813 29.2512C63.4513 29.4785 63.1758 29.6604 62.8549 29.7967C62.534 29.9331 62.1917 30 61.8333 30C61.4749 30 61.1353 29.9331 60.817 29.7967C60.4988 29.663 60.2206 29.4812 59.9826 29.2512C59.7446 29.0319 59.5574 28.7698 59.4183 28.4676C59.2793 28.1654 59.2097 27.8471 59.2097 27.5128C59.2097 27.1785 59.2793 26.8603 59.4183 26.5581C59.5574 26.2559 59.7446 25.9938 59.9826 25.7745C60.218 25.5471 60.4961 25.3653 60.817 25.2289C61.1353 25.0952 61.4723 25.0256 61.8333 25.0256C62.1943 25.0256 62.534 25.0925 62.8549 25.2289C63.1758 25.3626 63.454 25.5445 63.6813 25.7745C63.9274 25.9938 64.1172 26.2559 64.2563 26.5581C64.3954 26.8603 64.4649 27.1785 64.4649 27.5128ZM64.4034 20.3856C64.4034 20.7118 64.3339 21.0221 64.1948 21.3109C64.0557 21.5997 63.8685 21.8565 63.6305 22.0758C63.4112 22.2871 63.1411 22.4609 62.8282 22.5893C62.5126 22.7203 62.181 22.7845 61.8306 22.7845C61.4803 22.7845 61.1487 22.7203 60.8384 22.5893C60.5282 22.4582 60.2634 22.2871 60.0415 22.0758C59.8034 21.8565 59.6162 21.5997 59.4772 21.3109C59.3381 21.0221 59.2686 20.7145 59.2686 20.3856C59.2686 20.0566 59.3381 19.7624 59.4772 19.4736C59.6162 19.1848 59.8034 18.928 60.0415 18.7087C60.2608 18.4974 60.5255 18.3263 60.8384 18.1952C61.1487 18.0642 61.4776 18 61.8306 18C62.1836 18 62.5126 18.0642 62.8282 18.1952C63.1411 18.3263 63.4112 18.4974 63.6305 18.7087C63.8658 18.928 64.0557 19.1848 64.1948 19.4736C64.3339 19.7624 64.4034 20.0673 64.4034 20.3856ZM63.1438 27.4994C63.1438 27.1411 63.0154 26.8308 62.764 26.5741C62.5099 26.3174 62.205 26.189 61.8467 26.189C61.4883 26.189 61.1781 26.3174 60.916 26.5741C60.6539 26.8308 60.5255 27.1411 60.5255 27.4994C60.5255 27.8578 60.6566 28.168 60.916 28.4301C61.1781 28.6895 61.4856 28.8206 61.8467 28.8206C62.2077 28.8206 62.5126 28.6895 62.764 28.4301C63.0154 28.168 63.1438 27.8578 63.1438 27.4994ZM63.0822 20.3963C63.0822 20.062 62.9592 19.7731 62.7158 19.5271C62.4698 19.281 62.1756 19.158 61.8333 19.158C61.491 19.158 61.1995 19.281 60.9561 19.5271C60.7154 19.7731 60.5951 20.062 60.5951 20.3963C60.5951 20.7306 60.7154 21.0328 60.9561 21.2735C61.1968 21.5142 61.4883 21.6345 61.8333 21.6345C62.1783 21.6345 62.4698 21.5142 62.7158 21.2735C62.9619 21.0328 63.0822 20.7413 63.0822 20.3963Z" fill="#575756"/>
<path d="M67.7276 26.1784V24.9776H75.0394V26.1784H71.9772V29.131H70.6427V26.1784H67.7276ZM74.205 21.5223C74.205 21.8994 74.1301 22.2524 73.9777 22.5867C73.8279 22.921 73.6166 23.2125 73.3465 23.4559C73.0764 23.71 72.7662 23.9079 72.4158 24.055C72.0655 24.202 71.6884 24.2743 71.2899 24.2743C70.8914 24.2743 70.5143 24.1994 70.164 24.055C69.8136 23.9079 69.5034 23.7073 69.2333 23.4559C68.9632 23.2098 68.7519 22.921 68.5968 22.5867C68.4417 22.2524 68.3641 21.8967 68.3641 21.5223C68.3641 21.1479 68.4417 20.7922 68.5968 20.4579C68.7519 20.1236 68.9632 19.8294 69.2333 19.5754C69.5034 19.3213 69.8136 19.1207 70.164 18.9763C70.5143 18.8292 70.8887 18.757 71.2899 18.757C71.6911 18.757 72.0655 18.8292 72.4158 18.9763C72.7662 19.1234 73.0764 19.324 73.3465 19.5754C73.6166 19.8294 73.8252 20.1236 73.9777 20.4579C74.1274 20.7922 74.205 21.1479 74.205 21.5223ZM72.9079 21.5223C72.9079 21.081 72.7474 20.7066 72.4292 20.3964C72.1109 20.0862 71.7312 19.931 71.2899 19.931C70.8486 19.931 70.4715 20.0862 70.1559 20.3964C69.8404 20.7066 69.6853 21.081 69.6853 21.5223C69.6853 21.9636 69.8404 22.33 70.1559 22.6429C70.4715 22.9558 70.8486 23.1136 71.2899 23.1136C71.7312 23.1136 72.1109 22.9558 72.4292 22.6429C72.7474 22.3273 72.9079 21.9556 72.9079 21.5223ZM75.8578 18.5591H77.2056V29.484H75.8578V18.5591Z" fill="#575756"/>
<path d="M83.437 24.855V26.3233H82.0891V24.855H79.1125V23.7291H86.4002V24.855H83.437ZM81.1584 25.8098V28.0884H88.9596V29.2651H79.7998V25.8125H81.1584V25.8098ZM85.285 20.8755C85.285 21.2098 85.2128 21.5254 85.071 21.8249C84.9266 22.1245 84.7367 22.3866 84.5014 22.6139C84.266 22.8332 83.9879 23.0097 83.6697 23.1407C83.3514 23.2718 83.0117 23.336 82.6534 23.336C82.295 23.336 81.9554 23.2718 81.6371 23.1407C81.3189 23.0097 81.0381 22.8359 80.792 22.6139C80.562 22.3866 80.3775 22.1218 80.2357 21.8249C80.0913 21.5254 80.0218 21.2098 80.0218 20.8755C80.0218 20.5412 80.094 20.2256 80.2357 19.9315C80.3775 19.6373 80.5647 19.3752 80.792 19.1479C81.0381 18.9205 81.3189 18.7414 81.6371 18.6157C81.9554 18.49 82.295 18.4258 82.6534 18.4258C83.0117 18.4258 83.3514 18.49 83.6697 18.6157C83.9879 18.7414 84.266 18.9205 84.5014 19.1479C84.7367 19.3779 84.9293 19.6373 85.071 19.9315C85.2128 20.2256 85.285 20.5412 85.285 20.8755ZM84.0013 20.8862C84.0013 20.5198 83.8702 20.2069 83.6108 19.9502C83.3487 19.6934 83.0305 19.5651 82.6561 19.5651C82.2816 19.5651 81.9634 19.6934 81.7013 19.9502C81.4419 20.2069 81.3082 20.5198 81.3082 20.8862C81.3082 21.2526 81.4392 21.5655 81.7013 21.8223C81.9634 22.079 82.2816 22.2074 82.6561 22.2074C83.0305 22.2074 83.3514 22.079 83.6108 21.8223C83.8702 21.5655 84.0013 21.2526 84.0013 20.8862ZM87.3202 22.7717H85.7637V21.6564H87.3202V18.5595H88.6681V26.4463H87.3202V22.7717Z" fill="#575756"/>
<path d="M97.606 28.3928H90.4413V27.2053H93.3189V25.8467C93.1879 25.8147 93.0649 25.7719 92.9525 25.7237C92.6263 25.5927 92.3401 25.4188 92.0967 25.1969C91.8507 24.9695 91.6581 24.7048 91.5217 24.4079C91.3827 24.1084 91.3131 23.7928 91.3131 23.4585C91.3131 23.1242 91.3827 22.8086 91.5217 22.5145C91.6608 22.2203 91.8534 21.9582 92.0967 21.7309C92.3401 21.5035 92.6236 21.3243 92.9472 21.1986C93.2708 21.073 93.6158 21.0088 93.9822 21.0088C94.3486 21.0088 94.6936 21.073 95.0118 21.1986C95.3301 21.3243 95.6055 21.5035 95.8436 21.7309C96.0896 21.9609 96.2822 22.2203 96.4239 22.5145C96.5683 22.8086 96.6379 23.1242 96.6379 23.4585C96.6379 23.7928 96.5657 24.1084 96.4239 24.4079C96.2795 24.7075 96.0869 24.9695 95.8436 25.1969C95.6055 25.4162 95.3301 25.5927 95.0118 25.7237C94.8808 25.7799 94.7444 25.8253 94.608 25.8574V27.2053H97.6087V28.3928H97.606ZM93.22 19.6502V18.4868H94.6882V19.6502H97.3466V20.8135H90.5616V19.6502H93.22ZM95.314 23.4451C95.314 23.0868 95.183 22.7792 94.9209 22.5198C94.6588 22.2631 94.3406 22.1347 93.9661 22.1347C93.5917 22.1347 93.2735 22.2631 93.0114 22.5198C92.7493 22.7765 92.6209 23.0868 92.6209 23.4451C92.6209 23.8035 92.752 24.1164 93.0114 24.3758C93.2735 24.6379 93.5917 24.769 93.9661 24.769C94.3406 24.769 94.6588 24.6379 94.9209 24.3758C95.183 24.1164 95.314 23.8035 95.314 23.4451ZM98.5714 18.559H99.9193V29.4839H98.5714V18.559Z" fill="#575756"/>
<path d="M40.0807 24.0012C40.0807 31.1812 34.2596 37 27.082 37C19.9044 37 14.0807 31.1788 14.0807 24.0012C14.0807 16.8236 19.9019 11 27.082 11C34.262 11 40.0807 16.8212 40.0807 24.0012Z" fill="white"/>
<path d="M33.2501 23.1905C31.1609 21.771 28.4845 22.3485 27.082 24.4862C25.9075 26.2697 24.1362 26.4929 23.4495 26.4929C21.2147 26.4929 19.6836 24.9206 19.2322 23.2924C19.2274 23.2754 19.2249 23.2633 19.2201 23.2463C19.2152 23.2293 19.2104 23.2099 19.2055 23.1905C19.026 22.5111 18.9823 22.1883 18.9823 21.4652C18.9823 17.5731 22.9739 13.2418 28.7247 13.2418C34.4755 13.2418 37.9818 17.7236 38.8505 20.2156C38.836 20.1743 38.8214 20.1282 38.8068 20.0845C37.1325 15.2121 32.5125 11.7083 27.0747 11.7083C20.2295 11.7083 14.6777 17.2577 14.6777 24.1077C14.6777 30.2273 19.0915 35.4662 25.2136 35.4662C30.0981 35.4662 33.3787 32.7266 34.8856 28.9559C35.7106 26.8933 35.1258 24.4668 33.2501 23.1929V23.1905Z" fill="#003763"/>
<path d="M38.9257 20.4584C38.2026 18.027 34.8055 13.2419 28.7247 13.2419C22.9739 13.2419 18.9823 17.5733 18.9823 21.4654C18.9823 22.1885 19.026 22.5112 19.2055 23.1906C19.1303 22.8946 19.0915 22.5961 19.0915 22.3074C19.0915 18.2551 23.1486 15.4476 27.3198 15.4476C32.9662 15.4476 37.5426 20.024 37.5426 25.6705C37.5426 30.0964 34.9972 33.9255 31.2968 35.7672C36.0673 34.0444 39.4717 29.4753 39.4717 24.1103C39.4717 22.8412 39.3019 21.7202 38.9257 20.4632V20.4584Z" fill="#E4022D"/>
</svg>
