<svg width="114" height="48" viewBox="0 0 114 48" fill="none" xmlns="http://www.w3.org/2000/svg">
<path d="M37.7882 14H18V34H37.7882V14Z" fill="#B2D234"/>
<path d="M55.3856 18.1035H52.2053V30.3027H55.3856V18.1035Z" fill="#00367B"/>
<path d="M64.7894 23.9308H73.0889V27.6549H64.7894V23.9308ZM76.2824 28.0969V23.5021C76.2824 21.7652 74.8557 21.3008 74.1049 21.3008H64.7938V18.1125H61.6135V27.8781C61.6135 27.9138 61.6003 28.789 62.2717 29.4812C62.7885 30.0215 63.5659 30.2938 64.5729 30.2938H74.1004C74.8557 30.2938 76.2824 29.8294 76.2824 28.1014" fill="#00367B"/>
<path d="M92.8242 27.6549H84.5246V20.7471H92.8242V27.6549ZM93.045 18.1082H84.2994C83.2923 18.1082 82.5193 18.3805 81.9981 18.9208C81.3311 19.613 81.3444 20.4837 81.3444 20.5239V27.8648C81.3444 27.8871 81.3841 30.2939 84.2949 30.2939H93.0495C95.9559 30.2939 96 27.8916 96 27.8693V20.5149C96 20.4837 96.0133 19.613 95.3463 18.9208C94.8295 18.3805 94.0521 18.1082 93.045 18.1082Z" fill="#00367B"/>
<path d="M30.2219 18.8672V20.0505H32.8014V30.3028H35.9816V16.9695L30.2219 18.8672Z" fill="#00367B"/>
<path d="M41.6663 24.029L47.8855 18.1482H43.7998L37.7882 24.029L43.8572 30.2402H47.9252L41.6663 24.029Z" fill="#00367B"/>
</svg>
