<svg width="114" height="48" viewBox="0 0 114 48" fill="none" xmlns="http://www.w3.org/2000/svg">
<path d="M54.3665 26.3239V27.9054H55.201V25.9535H56.2791V31.6096H55.201V28.8749H54.3665V30.4661H50.9666V26.3207H52.0447V27.5608H53.2852V26.3207H54.3632L54.3665 26.3239ZM53.2852 29.5417V28.482H52.0447V29.5417H53.2852ZM53.4962 33.1493H58.0586V34.122H52.3467V31.3777H53.4995V33.1493H53.4962ZM57.9287 31.8093H56.8409V25.8472H57.9287V31.8093Z" fill="url(#paint0_linear_9_27353)"/>
<path d="M59.2536 27.0067H61.0298V25.8987H62.1891V27.0067H63.8842V27.9795H62.1891V28.6463C62.1891 28.8202 62.2021 28.978 62.2248 29.123C62.2508 29.2679 62.2865 29.4032 62.3385 29.532C62.3904 29.6609 62.4586 29.7865 62.543 29.9057C62.6275 30.0249 62.7314 30.1505 62.8515 30.2825C62.9295 30.3727 63.0204 30.4694 63.1276 30.5757C63.2347 30.682 63.3451 30.7882 63.4588 30.8978C63.5724 31.0105 63.6893 31.12 63.8062 31.2295C63.9231 31.3423 64.04 31.4486 64.1569 31.5484L63.4231 32.3054C63.2282 32.125 63.0366 31.9414 62.8418 31.7513C62.647 31.5613 62.4684 31.3809 62.2963 31.207C62.1144 31.0202 61.965 30.8591 61.8481 30.727C61.7312 30.5918 61.6565 30.4887 61.6273 30.4178H61.6078C61.5656 30.5016 61.4779 30.6208 61.3448 30.7786C61.2117 30.9332 61.0688 31.091 60.9194 31.2456C60.7506 31.4196 60.5752 31.6 60.3934 31.7803C60.2115 31.9639 59.994 32.1701 59.7407 32.3955L58.9873 31.6322C59.4809 31.1941 59.929 30.7593 60.3284 30.3276C60.4616 30.1763 60.572 30.041 60.6629 29.9121C60.7538 29.7865 60.8252 29.6577 60.8805 29.5288C60.9357 29.4 60.9714 29.2647 60.9941 29.123C61.0168 28.9812 61.0266 28.8234 61.0266 28.643V27.9763H59.2503V27.0035L59.2536 27.0067ZM63.4783 28.8331H64.9558V25.8472H66.1085V34.2122H64.9558V29.8219H63.4783V28.8331Z" fill="url(#paint1_linear_9_27353)"/>
<path d="M67.2516 30.4695H68.3687C68.7129 30.4695 69.0376 30.4695 69.3396 30.4598V30.0475C68.885 29.9831 68.5375 29.8511 68.2972 29.6514C68.0537 29.4549 67.9335 29.2133 67.9335 28.9331V28.6979C67.9335 28.3694 68.1024 28.0956 68.4401 27.8766C68.7778 27.6575 69.2649 27.548 69.9014 27.548C70.5378 27.548 71.0217 27.6575 71.3594 27.8766C71.6971 28.0956 71.866 28.3694 71.866 28.6979V28.9331C71.866 29.2101 71.7458 29.4484 71.5088 29.6481C71.2717 29.8478 70.9242 29.9831 70.4696 30.0475V30.4341C70.8853 30.4212 71.2555 30.4083 71.5705 30.389C71.8887 30.3696 72.1842 30.3471 72.4537 30.3181L72.5349 31.2264C72.2881 31.2554 72.0023 31.2812 71.6776 31.3038C71.3529 31.3263 70.9795 31.3424 70.5541 31.3521C70.1287 31.365 69.6448 31.3746 69.0993 31.3778C68.5538 31.3811 67.94 31.3875 67.2484 31.3875V30.4695H67.2516ZM69.3266 26.44V25.7217H70.4696V26.44H72.1744V27.358H67.5763V26.44H69.3266ZM68.3394 31.7837H74.0059V34.3186H72.8369V32.7081H68.3394V31.7805V31.7837ZM69.8981 28.3919C69.6091 28.3919 69.3883 28.4306 69.2357 28.5079C69.0831 28.5852 69.0084 28.6786 69.0084 28.7881V28.8429C69.0084 28.9492 69.0831 29.0426 69.2357 29.1199C69.3883 29.1972 69.6091 29.2358 69.8981 29.2358C70.1871 29.2358 70.4079 29.1972 70.5606 29.1199C70.7132 29.0426 70.7879 28.9492 70.7879 28.8429V28.7881C70.7879 28.6786 70.7132 28.5884 70.5606 28.5079C70.4079 28.4306 70.1871 28.3919 69.8981 28.3919ZM74.0059 28.3372H75.1229V29.326H74.0059V31.4036H72.8726V25.8441H74.0059V28.3339V28.3372Z" fill="url(#paint2_linear_9_27353)"/>
<path d="M77.9318 30.5242C77.5941 30.5242 77.2888 30.4726 77.0193 30.3663C76.7498 30.26 76.5225 30.1183 76.3341 29.9379C76.1458 29.7576 76.0029 29.5514 75.9022 29.3163C75.8016 29.0811 75.7529 28.8396 75.7529 28.5883V28.0858C75.7529 27.8346 75.8016 27.5898 75.9022 27.3579C76.0029 27.1227 76.1458 26.9166 76.3341 26.7362C76.5225 26.5558 76.7498 26.4141 77.0193 26.3078C77.2888 26.2015 77.5941 26.15 77.9318 26.15C78.2695 26.15 78.5747 26.2015 78.8443 26.3078C79.1138 26.4141 79.3411 26.5558 79.5294 26.7362C79.7178 26.9166 79.8606 27.1227 79.9613 27.3579C80.062 27.593 80.1107 27.8346 80.1107 28.0858V28.5883C80.1107 28.8396 80.062 29.0844 79.9613 29.3163C79.8606 29.5514 79.7178 29.7576 79.5294 29.9379C79.3411 30.1183 79.1138 30.26 78.8443 30.3663C78.5747 30.4726 78.2727 30.5242 77.9318 30.5242ZM77.9318 27.1324C77.7629 27.1324 77.6103 27.1614 77.4739 27.2162C77.3375 27.2741 77.2239 27.3514 77.1297 27.4449C77.0355 27.5415 76.9641 27.651 76.9121 27.7766C76.8602 27.9022 76.8342 28.0311 76.8342 28.1631V28.5046C76.8342 28.6431 76.8602 28.7719 76.9121 28.8943C76.9641 29.0167 77.0355 29.1262 77.1297 29.2229C77.2239 29.3195 77.3375 29.3936 77.4739 29.4516C77.6103 29.5095 77.7629 29.5353 77.9318 29.5353C78.1006 29.5353 78.2533 29.5063 78.3896 29.4516C78.526 29.3936 78.6397 29.3195 78.7339 29.2229C78.828 29.1262 78.8995 29.0167 78.9514 28.8943C79.0034 28.7719 79.0293 28.6399 79.0293 28.5046V28.1631C79.0293 28.0311 79.0034 27.9022 78.9514 27.7766C78.8995 27.651 78.828 27.5383 78.7339 27.4449C78.6397 27.3482 78.526 27.2709 78.3896 27.2162C78.2533 27.1582 78.1006 27.1324 77.9318 27.1324ZM78.2857 33.1493H82.637V34.1221H77.133V31.3165H78.2857V33.1525V33.1493ZM82.5007 31.7997H81.3576V25.844H82.5007V31.7997Z" fill="url(#paint3_linear_9_27353)"/>
<path d="M84.1146 31.5935C84.5692 31.3229 84.9556 31.0846 85.2738 30.8752C85.5953 30.6658 85.8616 30.4726 86.0759 30.2954C86.2902 30.1183 86.4591 29.9508 86.5825 29.7929C86.7059 29.6351 86.8001 29.4741 86.8618 29.313C86.9267 29.152 86.9657 28.9812 86.9851 28.8009C87.0046 28.6205 87.0111 28.4208 87.0111 28.1985V27.5769H84.2639V26.5977H88.1639V28.2533C88.1639 28.5528 88.1477 28.8266 88.1184 29.0714C88.0892 29.3162 88.0275 29.5481 87.9431 29.7607C87.8554 29.9733 87.732 30.1795 87.5697 30.376C87.4105 30.5724 87.2027 30.7786 86.9494 30.9912C86.6961 31.2038 86.3844 31.4325 86.0207 31.674C85.6538 31.9156 85.2219 32.1894 84.7186 32.4954L84.1113 31.5967L84.1146 31.5935ZM90.8429 34.2122H89.6901V25.8472H90.8429V34.2122Z" fill="url(#paint4_linear_9_27353)"/>
<path d="M94.3272 30.0377C93.97 30.0377 93.6583 29.9862 93.3888 29.8831C93.1192 29.7801 92.8952 29.6448 92.7133 29.4741C92.5315 29.3033 92.3951 29.1069 92.3042 28.8911C92.2132 28.672 92.1678 28.4433 92.1678 28.2018V27.9505C92.1678 27.7122 92.2132 27.4802 92.3042 27.2612C92.3951 27.0422 92.5315 26.8457 92.7133 26.6782C92.8952 26.5075 93.1192 26.3722 93.3888 26.2691C93.6583 26.1661 93.97 26.1177 94.3272 26.1177C94.6357 26.1177 94.9117 26.1564 95.1553 26.2337C95.4021 26.311 95.6131 26.4173 95.7917 26.5526C95.9703 26.6879 96.1132 26.8457 96.2236 27.0261C96.3308 27.2064 96.4087 27.3965 96.4509 27.593H97.857V25.8472H99V30.1569H97.857V28.5367H96.4607C96.4249 28.7397 96.3535 28.9329 96.2431 29.1165C96.1327 29.3001 95.9898 29.458 95.8112 29.5932C95.6326 29.7285 95.4183 29.8348 95.1715 29.9153C94.9247 29.9959 94.6422 30.0377 94.3272 30.0377ZM94.3272 27.0776C94.1454 27.0776 93.9863 27.1034 93.8499 27.1549C93.7135 27.2064 93.6031 27.2741 93.5154 27.3611C93.4277 27.448 93.3628 27.5447 93.3206 27.6542C93.2783 27.7605 93.2589 27.87 93.2589 27.9763V28.1728C93.2589 28.2823 93.2783 28.3886 93.3206 28.4981C93.3628 28.6076 93.4277 28.7042 93.5154 28.7912C93.6031 28.8782 93.7135 28.9458 93.8499 28.9973C93.9863 29.0489 94.1454 29.0747 94.3272 29.0747C94.5091 29.0747 94.6682 29.0489 94.8046 28.9973C94.9409 28.9458 95.0513 28.8782 95.139 28.7912C95.2267 28.7042 95.2916 28.6076 95.3339 28.4981C95.3761 28.3886 95.3988 28.2823 95.3988 28.1728V27.9763C95.3988 27.87 95.3761 27.7605 95.3339 27.6542C95.2916 27.5447 95.2267 27.448 95.139 27.3611C95.0513 27.2741 94.9409 27.2064 94.8046 27.1549C94.6682 27.1034 94.5091 27.0776 94.3272 27.0776ZM98.9968 30.5338V34.2219H93.6291V30.5338H94.7623V31.4776H97.8635V30.5338H98.9968ZM97.8602 33.2846V32.4117H94.7591V33.2846H97.8602Z" fill="url(#paint5_linear_9_27353)"/>
<path d="M50.9666 19.1345H51.6843L52.6714 22.0592L53.6976 19.1345H54.3762L52.9539 22.8709H52.3532L50.9666 19.1345Z" fill="#A6A7AA"/>
<path d="M56.9383 22.6068C56.7987 22.7002 56.6363 22.7743 56.448 22.8291C56.2596 22.8838 56.0291 22.9128 55.7563 22.9128C55.5907 22.9128 55.4284 22.8903 55.2692 22.8484C55.1134 22.8065 54.9737 22.7324 54.8471 22.6294C54.7237 22.5263 54.623 22.391 54.5483 22.2203C54.4737 22.0496 54.4347 21.837 54.4347 21.5793V21.283C54.4347 21.0511 54.4672 20.8514 54.5354 20.6839C54.6035 20.5164 54.6977 20.3779 54.8146 20.2683C54.9348 20.1588 55.0712 20.0783 55.2303 20.0268C55.3894 19.9752 55.5615 19.9495 55.7433 19.9495C55.9252 19.9495 56.094 19.9752 56.2467 20.0268C56.4025 20.0783 56.5357 20.1588 56.6461 20.2619C56.7565 20.3682 56.8442 20.5003 56.9059 20.6549C56.9676 20.8127 57 20.9931 57 21.2024V21.6727H55.0712C55.0712 21.9014 55.1329 22.0721 55.253 22.1881C55.3764 22.304 55.5517 22.362 55.7823 22.362C55.9544 22.362 56.1038 22.3427 56.2369 22.3073C56.3701 22.2718 56.5097 22.2106 56.6558 22.1269L56.9286 22.6004L56.9383 22.6068ZM56.3798 21.1863V21.0607C56.3798 20.9834 56.3701 20.9126 56.3473 20.8417C56.3246 20.7708 56.2856 20.7129 56.2337 20.6613C56.1817 20.6098 56.1135 20.5679 56.0356 20.5357C55.9544 20.5035 55.857 20.4906 55.7433 20.4906C55.5225 20.4906 55.3602 20.5486 55.2498 20.6613C55.1393 20.774 55.0841 20.9126 55.0841 21.0768V21.1863H56.3798Z" fill="#A6A7AA"/>
<path d="M59.1172 19.9527C59.2471 19.9527 59.3705 19.972 59.4906 20.0107C59.6108 20.0493 59.7179 20.1105 59.8121 20.1943C59.9063 20.278 59.981 20.3875 60.0362 20.5228C60.0914 20.6581 60.1206 20.8191 60.1206 21.0092V22.8709H59.4614V21.1509C59.4614 20.7322 59.2795 20.5228 58.9126 20.5228C58.8607 20.5228 58.799 20.5293 58.7275 20.5454C58.6561 20.5615 58.5879 20.5905 58.5229 20.6388C58.458 20.6839 58.4028 20.7515 58.3573 20.8385C58.3119 20.9254 58.2891 21.0382 58.2891 21.1799V22.8709H57.6299V20.0139H58.2534V20.3392H58.2632C58.3638 20.1943 58.4905 20.0944 58.6366 20.0364C58.7827 19.9785 58.9451 19.9495 59.1139 19.9495L59.1172 19.9527Z" fill="#A6A7AA"/>
<path d="M61.0623 20.555H60.6012V20.0171H61.0623V19.2859H61.7215V20.0171H62.4489V20.555H61.7215V22.0592C61.7215 22.1816 61.7475 22.2589 61.7962 22.2976C61.8449 22.3362 61.9163 22.3555 62.004 22.3555C62.069 22.3555 62.1339 22.3491 62.1989 22.3362C62.2638 22.3233 62.3352 22.3008 62.4099 22.2718L62.5138 22.7968C62.4554 22.8258 62.3742 22.8516 62.2703 22.8774C62.1664 22.9031 62.0495 22.916 61.9228 22.916C61.7572 22.916 61.6208 22.8967 61.5104 22.858C61.4 22.8194 61.3091 22.7646 61.2442 22.6905C61.1792 22.6197 61.1305 22.5295 61.1045 22.4232C61.0753 22.3169 61.0623 22.1977 61.0623 22.0624V20.555Z" fill="#A6A7AA"/>
<path d="M64.0108 22.9193C63.7088 22.9193 63.4653 22.8291 63.2834 22.6519C63.1016 22.4747 63.0107 22.2106 63.0107 21.8627V20.0171H63.6699V21.7242C63.6699 21.8499 63.6829 21.9529 63.7121 22.0335C63.7413 22.114 63.777 22.1784 63.8257 22.2267C63.8744 22.275 63.9329 22.3073 63.9978 22.3266C64.0628 22.3459 64.1342 22.3556 64.2122 22.3556C64.2771 22.3556 64.3485 22.3459 64.42 22.3234C64.4914 22.304 64.5564 22.2654 64.6148 22.2138C64.6733 22.1623 64.7252 22.0914 64.7642 22.0077C64.8032 21.9207 64.8226 21.8144 64.8226 21.6856V20.0203H65.4818V22.8774H64.8551V22.5359H64.8454C64.8032 22.6036 64.7512 22.6648 64.6895 22.7131C64.6278 22.7614 64.5564 22.8001 64.4817 22.8323C64.407 22.8645 64.3291 22.887 64.2446 22.9031C64.1602 22.9193 64.0823 22.9257 64.0076 22.9257L64.0108 22.9193Z" fill="#A6A7AA"/>
<path d="M67.9335 20.6003C67.8848 20.5809 67.8329 20.5648 67.7777 20.5552C67.7225 20.5455 67.651 20.5391 67.5698 20.5391C67.4789 20.5391 67.3945 20.5552 67.3166 20.5874C67.2386 20.6196 67.1704 20.6615 67.112 20.7194C67.0535 20.7774 67.0081 20.8451 66.9756 20.9224C66.9431 20.9997 66.9269 21.0866 66.9269 21.1801V22.8743H66.2677V20.0173H66.9009V20.4328H66.9107C66.9886 20.2878 67.0893 20.1719 67.2159 20.0849C67.3425 19.9979 67.5081 19.9561 67.716 19.9561C67.7874 19.9561 67.8621 19.9625 67.9368 19.9722C68.0115 19.9818 68.0732 19.9979 68.1251 20.014L67.9368 20.6035L67.9335 20.6003Z" fill="#A6A7AA"/>
<path d="M70.8982 22.6068C70.7586 22.7002 70.5962 22.7743 70.4079 22.8291C70.2196 22.8838 69.989 22.9128 69.7162 22.9128C69.5506 22.9128 69.3883 22.8903 69.2291 22.8484C69.0733 22.8065 68.9336 22.7324 68.807 22.6294C68.6836 22.5263 68.5829 22.391 68.5082 22.2203C68.4336 22.0496 68.3946 21.837 68.3946 21.5793V21.283C68.3946 21.0511 68.4271 20.8514 68.4953 20.6839C68.5635 20.5164 68.6576 20.3779 68.7745 20.2683C68.8947 20.1588 69.0311 20.0783 69.1902 20.0268C69.3493 19.9752 69.5214 19.9495 69.7032 19.9495C69.8851 19.9495 70.0539 19.9752 70.2066 20.0268C70.3624 20.0783 70.4956 20.1588 70.606 20.2619C70.7164 20.3682 70.8041 20.5003 70.8658 20.6549C70.9275 20.8127 70.9599 20.9931 70.9599 21.2024V21.6727H69.0311C69.0311 21.9014 69.0928 22.0721 69.2129 22.1881C69.3363 22.304 69.5117 22.362 69.7422 22.362C69.9143 22.362 70.0637 22.3427 70.1968 22.3073C70.33 22.2718 70.4696 22.2106 70.6157 22.1269L70.8885 22.6004L70.8982 22.6068ZM70.3397 21.1863V21.0607C70.3397 20.9834 70.33 20.9126 70.3072 20.8417C70.2845 20.7708 70.2455 20.7129 70.1936 20.6613C70.1416 20.6098 70.0734 20.5679 69.9955 20.5357C69.9143 20.5035 69.8169 20.4906 69.7032 20.4906C69.4824 20.4906 69.3201 20.5486 69.2097 20.6613C69.0992 20.774 69.044 20.9126 69.044 21.0768V21.1863H70.3397Z" fill="#A6A7AA"/>
<path d="M75.3567 19.1345V19.6853H73.5967V20.6903H75.2496V21.2282H73.5967V22.3234H75.3957V22.8742H72.9343V19.1377H75.36L75.3567 19.1345Z" fill="#A6A7AA"/>
<path d="M77.5616 19.9527C77.6915 19.9527 77.8149 19.972 77.935 20.0107C78.0552 20.0493 78.1623 20.1105 78.2565 20.1943C78.3507 20.278 78.4254 20.3875 78.4806 20.5228C78.5358 20.6581 78.565 20.8191 78.565 21.0092V22.8709H77.9058V21.1509C77.9058 20.7322 77.7239 20.5228 77.357 20.5228C77.305 20.5228 77.2434 20.5293 77.1719 20.5454C77.1005 20.5615 77.0323 20.5905 76.9673 20.6388C76.9024 20.6839 76.8472 20.7515 76.8017 20.8385C76.7563 20.9254 76.7335 21.0382 76.7335 21.1799V22.8709H76.0743V20.0139H76.6946V20.3392H76.7043C76.805 20.1943 76.9284 20.0944 77.0777 20.0364C77.2271 19.9785 77.3862 19.9495 77.5551 19.9495L77.5616 19.9527Z" fill="#A6A7AA"/>
<path d="M79.5067 20.555H79.0456V20.0171H79.5067V19.2859H80.1659V20.0171H80.8933V20.555H80.1659V22.0592C80.1659 22.1816 80.1919 22.2589 80.2406 22.2976C80.2925 22.3362 80.3607 22.3555 80.4484 22.3555C80.5134 22.3555 80.5815 22.3491 80.6432 22.3362C80.7082 22.3233 80.7796 22.3008 80.8543 22.2718L80.9582 22.7968C80.8998 22.8258 80.8186 22.8516 80.7147 22.8774C80.6108 22.9031 80.4971 22.916 80.3672 22.916C80.2049 22.916 80.0652 22.8967 79.9548 22.858C79.8444 22.8194 79.7535 22.7646 79.6886 22.6905C79.6236 22.6197 79.5749 22.5295 79.5457 22.4232C79.5164 22.3169 79.5035 22.1977 79.5035 22.0624V20.555H79.5067Z" fill="#A6A7AA"/>
<path d="M83.8288 22.6068C83.6892 22.7002 83.5268 22.7743 83.3385 22.8291C83.1502 22.8838 82.9196 22.9128 82.6468 22.9128C82.4812 22.9128 82.3189 22.8903 82.1597 22.8484C82.0006 22.8065 81.8642 22.7324 81.7376 22.6294C81.6142 22.5263 81.5135 22.391 81.4389 22.2203C81.3642 22.0496 81.3252 21.837 81.3252 21.5793V21.283C81.3252 21.0511 81.3577 20.8514 81.4259 20.6839C81.4941 20.5164 81.5882 20.3779 81.7051 20.2683C81.8253 20.1588 81.9617 20.0783 82.1208 20.0268C82.2799 19.9752 82.452 19.9495 82.6338 19.9495C82.8157 19.9495 82.9845 19.9752 83.1372 20.0268C83.293 20.0783 83.4262 20.1588 83.5366 20.2619C83.647 20.3682 83.7347 20.5003 83.7964 20.6549C83.8581 20.8127 83.8905 20.9931 83.8905 21.2024V21.6727H81.9617C81.9617 21.9014 82.0234 22.0721 82.1435 22.1881C82.2669 22.304 82.4422 22.362 82.6728 22.362C82.8449 22.362 82.9943 22.3427 83.1274 22.3073C83.2606 22.2718 83.4002 22.2106 83.5463 22.1269L83.8191 22.6004L83.8288 22.6068ZM83.2671 21.1863V21.0607C83.2671 20.9834 83.2573 20.9126 83.2346 20.8417C83.2119 20.7708 83.1729 20.7129 83.1209 20.6613C83.069 20.6098 83.0008 20.5679 82.9228 20.5357C82.8417 20.5035 82.7442 20.4906 82.6306 20.4906C82.4098 20.4906 82.2474 20.5486 82.137 20.6613C82.0266 20.774 81.9714 20.9126 81.9714 21.0768V21.1863H83.2671Z" fill="#A6A7AA"/>
<path d="M86.1896 20.6003C86.1409 20.5809 86.0889 20.5648 86.0337 20.5552C85.9785 20.5455 85.9071 20.5391 85.8259 20.5391C85.735 20.5391 85.6505 20.5552 85.5726 20.5874C85.4947 20.6196 85.4265 20.6615 85.368 20.7194C85.3096 20.7774 85.2641 20.8451 85.2316 20.9224C85.1992 20.9997 85.1829 21.0866 85.1829 21.1801V22.8743H84.5237V20.0173H85.157V20.4328H85.1667C85.2446 20.2878 85.3453 20.1719 85.4719 20.0849C85.5986 19.9979 85.7642 19.9561 85.972 19.9561C86.0467 19.9561 86.1181 19.9625 86.1928 19.9722C86.2643 19.9818 86.3292 19.9979 86.3812 20.014L86.1928 20.6035L86.1896 20.6003Z" fill="#A6A7AA"/>
<path d="M88.2451 22.9128C88.0698 22.9128 87.9204 22.8838 87.797 22.8226C87.6704 22.7614 87.5697 22.6809 87.495 22.581V23.9822H86.8358V20.0171H87.469V20.3263C87.5177 20.2522 87.5762 20.1942 87.6411 20.1459C87.7061 20.0976 87.7775 20.0589 87.849 20.0332C87.9204 20.0074 87.9951 19.9848 88.0698 19.972C88.1445 19.9591 88.2159 19.9526 88.2808 19.9526C88.4692 19.9526 88.6315 19.9816 88.7744 20.0396C88.9173 20.0976 89.0342 20.1813 89.1284 20.2844C89.2225 20.3907 89.294 20.5163 89.3394 20.6677C89.3882 20.8191 89.4109 20.9834 89.4109 21.167V21.6695C89.4109 21.8627 89.3849 22.0367 89.3297 22.188C89.2745 22.3394 89.1966 22.4683 89.0959 22.5778C88.9952 22.6841 88.8718 22.7678 88.729 22.8226C88.5861 22.8806 88.427 22.9096 88.2484 22.9096L88.2451 22.9128ZM88.7517 21.2733C88.7517 21.0317 88.703 20.8449 88.6088 20.7096C88.5146 20.5775 88.362 20.5099 88.1477 20.5099C87.9334 20.5099 87.7613 20.5743 87.6476 20.6999C87.534 20.8255 87.4788 20.9866 87.4788 21.1863V21.7919C87.4788 21.8595 87.495 21.9239 87.5307 21.9916C87.5664 22.0592 87.6119 22.1204 87.6736 22.1719C87.7321 22.2267 87.8035 22.2686 87.8879 22.304C87.9724 22.3394 88.0633 22.3555 88.1639 22.3555C88.3555 22.3555 88.5017 22.2879 88.5991 22.1558C88.6997 22.0238 88.7484 21.8369 88.7484 21.5986V21.2733H88.7517Z" fill="#A6A7AA"/>
<path d="M91.7034 20.6003C91.6547 20.5809 91.6028 20.5648 91.5476 20.5552C91.4924 20.5455 91.4209 20.5391 91.3397 20.5391C91.2488 20.5391 91.1644 20.5552 91.0865 20.5874C91.0085 20.6196 90.9403 20.6615 90.8819 20.7194C90.8234 20.7774 90.778 20.8451 90.7455 20.9224C90.713 20.9997 90.6968 21.0866 90.6968 21.1801V22.8743H90.0376V20.0173H90.6708V20.4328H90.6806C90.7585 20.2878 90.8592 20.1719 90.9858 20.0849C91.1124 19.9979 91.278 19.9561 91.4859 19.9561C91.5606 19.9561 91.632 19.9625 91.7067 19.9722C91.7781 19.9818 91.8431 19.9979 91.895 20.014L91.7067 20.6035L91.7034 20.6003Z" fill="#A6A7AA"/>
<path d="M92.3464 18.8899H93.0348V19.5953H92.3464V18.8899ZM92.3626 20.014H93.0218V22.8711H92.3626V20.014Z" fill="#A6A7AA"/>
<path d="M94.7721 22.3589C94.9215 22.3589 95.0416 22.3395 95.1293 22.2977C95.217 22.259 95.2624 22.1817 95.2624 22.0722V22.04C95.2624 21.9917 95.2559 21.9498 95.2429 21.9176C95.23 21.8854 95.204 21.8564 95.1618 21.8306C95.1195 21.8048 95.0611 21.7823 94.9799 21.763C94.902 21.7436 94.7948 21.7179 94.6584 21.6889C94.4831 21.6534 94.337 21.6148 94.2103 21.5665C94.0869 21.5182 93.9863 21.4634 93.9083 21.3925C93.8304 21.3249 93.7719 21.2411 93.7362 21.1445C93.7005 21.0479 93.681 20.9319 93.681 20.7966V20.7451C93.681 20.6485 93.7005 20.5518 93.7427 20.4584C93.7817 20.3618 93.8466 20.2781 93.9375 20.2008C94.0285 20.1234 94.1421 20.0622 94.2818 20.0172C94.4214 19.9688 94.5935 19.9463 94.7948 19.9463C94.9637 19.9463 95.139 19.9624 95.3241 19.9914C95.5125 20.0236 95.6878 20.0945 95.8534 20.204L95.5709 20.6742C95.4735 20.6098 95.3631 20.5615 95.2429 20.5357C95.1228 20.5068 94.9994 20.4939 94.876 20.4939C94.6714 20.4939 94.5285 20.5164 94.4539 20.5647C94.3759 20.6098 94.337 20.6742 94.337 20.7483V20.7805C94.337 20.8321 94.3435 20.8739 94.3597 20.9062C94.3727 20.9384 94.3987 20.9641 94.4376 20.9867C94.4766 21.0092 94.5318 21.0286 94.6 21.0447C94.6714 21.0608 94.7591 21.0801 94.8728 21.1026C95.0546 21.1413 95.2105 21.1799 95.3469 21.2218C95.48 21.2637 95.5904 21.3185 95.6748 21.3861C95.7593 21.4537 95.8242 21.5375 95.8664 21.6406C95.9086 21.7436 95.9281 21.8693 95.9281 22.0206V22.0786C95.9281 22.1881 95.9021 22.2944 95.8534 22.3943C95.8015 22.4941 95.73 22.5843 95.6326 22.6584C95.5352 22.7357 95.415 22.7937 95.2722 22.8388C95.1293 22.8839 94.9669 22.9064 94.7851 22.9064C94.5448 22.9064 94.3175 22.8742 94.1032 22.813C93.8888 22.7518 93.7135 22.6649 93.5739 22.5553L93.8661 22.0561C93.996 22.143 94.1324 22.2139 94.2785 22.2687C94.4246 22.3234 94.587 22.3524 94.7688 22.3524L94.7721 22.3589Z" fill="#A6A7AA"/>
<path d="M98.8474 22.6068C98.7077 22.7002 98.5454 22.7743 98.3571 22.8291C98.1687 22.8838 97.9382 22.9128 97.6654 22.9128C97.4965 22.9128 97.3374 22.8903 97.1783 22.8484C97.0224 22.8065 96.8828 22.7324 96.7562 22.6294C96.6328 22.5263 96.5321 22.391 96.4574 22.2203C96.3827 22.0496 96.3438 21.837 96.3438 21.5793V21.283C96.3438 21.0511 96.3795 20.8514 96.4477 20.6839C96.5159 20.5164 96.61 20.3779 96.7269 20.2683C96.8438 20.1588 96.9835 20.0783 97.1426 20.0268C97.3017 19.9752 97.4738 19.9495 97.6589 19.9495C97.844 19.9495 98.0063 19.9752 98.1622 20.0268C98.3181 20.0783 98.4512 20.1588 98.5616 20.2619C98.672 20.3682 98.7597 20.5003 98.8214 20.6549C98.8831 20.8127 98.9156 20.9931 98.9156 21.2024V21.6727H96.9867C96.9867 21.9014 97.0484 22.0721 97.1686 22.1881C97.2919 22.304 97.4673 22.362 97.6946 22.362C97.8667 22.362 98.0161 22.3427 98.1492 22.3073C98.2824 22.2718 98.422 22.2106 98.5681 22.1269L98.8409 22.6004L98.8474 22.6068ZM98.2889 21.1863V21.0607C98.2889 20.9834 98.2759 20.9126 98.2564 20.8417C98.2337 20.7708 98.1947 20.7129 98.1427 20.6613C98.0908 20.6098 98.0258 20.5679 97.9446 20.5357C97.8635 20.5035 97.766 20.4906 97.6524 20.4906C97.4316 20.4906 97.2692 20.5486 97.1588 20.6613C97.0484 20.774 96.9932 20.9126 96.9932 21.0768V21.1863H98.2889Z" fill="#A6A7AA"/>
<path d="M35.8603 24.2465L43.407 31.8192H39.3479L32.7755 25.2257V36.0001H46.8036V17.1892H42.9361L35.8603 24.2465Z" fill="url(#paint6_linear_9_27353)"/>
<path d="M20.6567 14.8248L15 14.8215L22.644 22.4941L22.7415 33.204L25.5828 30.376L25.4886 19.6724L20.6567 14.8248Z" fill="url(#paint7_linear_9_27353)"/>
<path d="M43.4849 12.0129L17.8446 12L20.6567 14.8249L25.4886 19.6725L25.5828 30.3761L29.5769 26.4045V15.2887H32.8859V23.1158V23.1223L43.696 12.3769L44.0564 12.0161L43.4849 12.0129Z" fill="#CFD1D2"/>
<defs>
<linearGradient id="paint0_linear_9_27353" x1="54.5094" y1="25.8472" x2="54.5094" y2="34.122" gradientUnits="userSpaceOnUse">
<stop stop-color="#1C3969"/>
<stop offset="0.05" stop-color="#1C3A6B"/>
<stop offset="1" stop-color="#284EA1"/>
</linearGradient>
<linearGradient id="paint1_linear_9_27353" x1="62.5495" y1="11.9999" x2="62.5495" y2="34.2122" gradientUnits="userSpaceOnUse">
<stop stop-color="#1C3969"/>
<stop offset="0.05" stop-color="#1C3A6B"/>
<stop offset="1" stop-color="#284EA1"/>
</linearGradient>
<linearGradient id="paint2_linear_9_27353" x1="71.1873" y1="25.7217" x2="71.1873" y2="34.3186" gradientUnits="userSpaceOnUse">
<stop stop-color="#1C3969"/>
<stop offset="0.05" stop-color="#1C3A6B"/>
<stop offset="1" stop-color="#284EA1"/>
</linearGradient>
<linearGradient id="paint3_linear_9_27353" x1="79.1982" y1="11.9999" x2="79.1982" y2="11.9999" gradientUnits="userSpaceOnUse">
<stop stop-color="#1C3969"/>
<stop offset="0.05" stop-color="#1C3A6B"/>
<stop offset="1" stop-color="#284EA1"/>
</linearGradient>
<linearGradient id="paint4_linear_9_27353" x1="87.4787" y1="11.9999" x2="87.4787" y2="34.2122" gradientUnits="userSpaceOnUse">
<stop stop-color="#1C3969"/>
<stop offset="0.05" stop-color="#1C3A6B"/>
<stop offset="1" stop-color="#284EA1"/>
</linearGradient>
<linearGradient id="paint5_linear_9_27353" x1="95.5807" y1="11.9999" x2="95.5807" y2="34.2219" gradientUnits="userSpaceOnUse">
<stop stop-color="#1C3969"/>
<stop offset="0.05" stop-color="#1C3A6B"/>
<stop offset="1" stop-color="#284EA1"/>
</linearGradient>
<linearGradient id="paint6_linear_9_27353" x1="39.7895" y1="17.1892" x2="39.7895" y2="36.0001" gradientUnits="userSpaceOnUse">
<stop stop-color="#1C3969"/>
<stop offset="0.05" stop-color="#1C3A6B"/>
<stop offset="1" stop-color="#284EA1"/>
</linearGradient>
<linearGradient id="paint7_linear_9_27353" x1="20.293" y1="14.8215" x2="20.293" y2="33.204" gradientUnits="userSpaceOnUse">
<stop stop-color="#1C3969"/>
<stop offset="0.05" stop-color="#1C3A6B"/>
<stop offset="1" stop-color="#284EA1"/>
</linearGradient>
</defs>
</svg>
