<svg width="114" height="48" viewBox="0 0 114 48" fill="none" xmlns="http://www.w3.org/2000/svg">
<path d="M30.2302 24.2224L30.0326 24.0983C29.367 23.4364 28.4362 23.1468 27.1986 23.2192C26.1637 23.2813 25.3473 23.6898 24.7181 24.0672V24.0414C24.7181 23.7208 24.7545 23.3692 24.7909 23.0331C24.8273 22.6866 24.8637 22.335 24.8637 22.0041C24.8637 21.6732 24.8273 21.3474 24.7077 21.0682C24.6765 21.001 24.6141 20.9544 24.5309 20.9544C24.1981 20.9596 23.5429 21.1871 23.3869 21.3267L23.3037 21.5129C23.3037 21.88 23.2153 22.909 23.1321 23.0279L23.0905 23.152C22.9501 24.6154 22.9449 25.9081 23.0749 27.0146C23.0905 27.1284 23.3037 27.2938 23.4701 27.3507C23.6521 27.4179 24.2189 27.268 24.5465 27.1439L24.6713 27.1232C24.7753 27.1129 24.8377 27.025 24.8325 26.906L24.8429 26.5854C25.0769 25.6288 26.0337 24.4913 27.1674 24.3206C27.807 24.2224 28.3114 24.3827 28.7118 24.817C28.769 24.8946 28.8834 25.5823 28.4622 26.3734C28.1502 26.9577 27.521 27.449 26.6942 27.7592C25.9141 28.0539 25.0509 28.1729 23.9901 28.1367C23.9485 28.1057 22.9969 27.4696 22.9969 27.4696C22.1545 26.8802 21.1093 26.1511 20.1577 25.7943C19.9913 25.7323 19.6949 25.4841 19.5129 25.3393L19.4141 25.2565C18.8681 24.8222 17.8281 24.1293 16.9909 23.576C16.9909 23.576 16.6165 23.3227 16.5437 23.2761V23.183C16.5697 23.1572 17.0949 22.8418 17.0949 22.8418C17.8333 22.4126 18.1713 22.2058 18.2441 22.0972C18.2285 22.1127 18.3429 22.0403 18.3429 22.0403C18.3481 22.0403 20.1681 21.0165 20.1681 21.0165C21.9205 20.0599 23.9017 18.974 24.9417 17.9036L24.9937 17.7382L25.0145 17.5934C25.0821 17.3659 25.0873 17.1901 25.0301 16.9832C25.0145 16.9264 24.9625 16.8591 24.8897 16.8436C24.0785 16.7609 23.0281 17.2469 22.0713 18.1363C21.8581 18.338 21.6761 18.4362 21.4837 18.5397L21.3381 18.6224C20.2877 19.217 17.9113 20.6804 16.6737 21.4715C16.7517 20.1426 17.0013 18.2553 17.3081 16.6833L17.2717 16.4972L17.1417 16.2593L17.0429 16.0887L17.0169 16.0783C16.7673 15.9542 16.5645 16.006 16.4189 16.0422L16.1693 16.1352L15.8417 16.2542C15.7793 16.2645 15.7325 16.3059 15.7065 16.3679C15.1137 17.7899 14.6197 20.1374 14.5001 22.0093C13.3144 21.2595 12.2224 20.7217 11.6816 20.4632L11.666 20.4529L11.6036 20.4373C11.4112 20.4115 11.172 20.2719 10.9484 20.1323C10.9224 20.1167 10.496 19.8427 10.496 19.8427L9.80961 19.4032L9.62761 19.3618C9.33121 19.4135 8.76441 19.791 8.5928 20.0495C8.572 20.0857 8.5616 20.1219 8.5616 20.1581C8.5616 20.215 8.5772 20.2667 8.5928 20.3184L8.62401 20.458L8.65521 20.5408C8.98281 20.8769 9.82002 21.4405 10.6364 21.8748L11.5828 22.3712L13.0336 23.1572L13.2832 23.3537L13.4548 23.4519C13.4548 23.4519 13.4756 23.4623 13.486 23.4726C13.1012 23.7311 10.8496 25.2255 10.8496 25.2255L9.46121 26.1356C9.33121 26.2235 8.78521 26.4717 8.66041 26.5182C8.3588 26.6371 8.1352 26.8233 8.0364 27.0301L8 27.1077L8.0364 27.1594L8.1404 27.237L8.2808 27.33L8.4316 27.4334L8.5772 27.4541C8.82161 27.4645 9.18041 27.3249 9.85642 27.0301C10.4752 26.7561 12.16 25.7478 12.8776 25.3186L13.1844 25.1376C13.3092 25.1479 13.4496 25.0394 13.5744 24.9463C13.72 24.8325 14.032 24.6412 14.2245 24.5585C14.2297 24.5585 14.3389 24.4964 14.4429 24.4395C14.4429 24.4706 14.4429 24.5223 14.4429 24.5223C14.4741 26.7095 14.5989 28.3021 14.8433 29.5276V29.5483L14.8693 29.5948C14.9889 29.7707 15.1241 30.2877 15.2437 30.7428L15.5193 31.658L15.5973 31.7459C15.7533 31.8493 16.2317 32.0355 16.5489 31.9941L16.6269 31.9838L16.6789 31.87C16.7049 31.7356 16.7153 31.6011 16.7153 31.4512C16.7153 31.2857 16.6997 31.0996 16.6893 30.8772L16.6685 30.5463C16.5645 29.0157 16.4657 26.8129 16.4657 25.3444V25.2307C16.7257 25.391 17.8697 26.1097 17.8697 26.1097C19.8145 27.3662 22.7473 29.2587 24.5205 29.7603C24.6141 29.7913 24.7129 29.7655 24.7753 29.7034L25.0509 29.5276L25.1029 29.5069C25.2069 29.4604 25.2745 29.2898 25.2849 29.1036C26.7826 29.0312 28.8678 28.4573 29.9806 27.0611C30.4122 26.5182 30.6046 25.8563 30.6046 25.2927C30.6046 24.8274 30.4746 24.4292 30.2406 24.2069" fill="#FCAF16"/>
<path d="M77.9926 22.6764H74.2173V19.5894H77.9926V22.6764ZM79.3602 18.4053H72.8549V23.8656H79.3602V18.4053Z" fill="#776C61"/>
<path d="M66.5265 22.9245V24.6308H70.5513V29.0984H69.1785V25.8098H61.1028V24.6308H65.1537V22.9245H60.2604V21.7455H69.1109V19.3876H61.2536V18.2139H70.4889V21.7404H71.4717V22.9245H66.5265Z" fill="#776C61"/>
<path d="M82.7246 29.0519H74.0925V25.0393H75.4653V27.8677H82.7246V29.0519Z" fill="#776C61"/>
<path d="M82.6206 18.1414H81.253V25.3133H82.6206V18.1414Z" fill="#776C61"/>
<path d="M35.7318 18.2292H37.4738V23.095L43.3447 18.2292H45.8147L39.611 23.1363L46.3295 29.0931H43.8595L37.4738 23.2708V29.0931H35.7318V18.2292Z" fill="#776C61"/>
<path d="M47.5463 18.2554H52.918C55.4712 18.2554 56.8076 19.0982 56.8076 20.9442C56.8076 22.2576 55.8872 23.1573 54.66 23.4003V23.4469C56.4176 23.6537 57.2496 24.8016 57.2496 26.0943C57.2496 27.718 56.0536 29.1192 53.0896 29.1192H47.5463V18.2554ZM49.2883 22.8315H52.8296C54.1452 22.8315 55.1176 22.3351 55.1176 21.1769C55.1176 20.1686 54.6392 19.4912 52.6268 19.4912H49.2831V22.8315H49.2883ZM49.2883 27.8834H52.7204C54.8524 27.8834 55.4192 27.0509 55.4192 26.0012C55.4192 24.7551 54.5508 24.0622 52.6268 24.0622H49.2831V27.8834H49.2883Z" fill="#776C61"/>
<path d="M84.0298 18.4258V19.6099H88.9231V21.2439H84.0298V22.4176H88.9231V25.5512H90.3115V18.4258H84.0298Z" fill="#776C61"/>
<path d="M106 27.1853H95.5115V28.3539H106V27.1853Z" fill="#776C61"/>
<path d="M97.9919 19.5944H104.872V18.4258H96.6347V24.7135H104.872V23.5397H97.9919V19.5944Z" fill="#776C61"/>
<path d="M91.9755 29.0932H93.3587V22.0971H94.7523V20.913H93.3587V18.188H91.9755V29.0932Z" fill="#776C61"/>
</svg>
