<svg width="114" height="48" viewBox="0 0 114 48" fill="none" xmlns="http://www.w3.org/2000/svg">
<path d="M30.0952 24.1999L29.8989 24.0759C29.2376 23.4143 28.3129 23.13 27.0834 23.2024C26.0554 23.2644 25.2443 23.6727 24.6192 24.05C24.6192 24.0397 24.6192 24.0294 24.6192 24.0242C24.6192 23.7037 24.6554 23.3523 24.6915 23.0163C24.7277 22.67 24.7638 22.3237 24.7638 21.9929C24.7638 21.6622 24.7277 21.3314 24.6089 21.0574C24.5779 20.9851 24.5159 20.9437 24.4332 20.9437C24.1026 20.9489 23.4517 21.1763 23.2967 21.3159L23.2089 21.5019C23.2089 21.8689 23.121 22.8974 23.0384 23.0215L22.997 23.1455C22.8576 24.6134 22.8524 25.9004 22.9816 27.0064C22.997 27.115 23.2089 27.2804 23.3742 27.3424C23.555 27.4096 24.1181 27.2597 24.4435 27.1357L24.5675 27.115C24.6708 27.1046 24.7328 27.0168 24.7277 26.8979L24.738 26.5775C24.9705 25.6213 25.921 24.4842 27.0472 24.3136C27.6827 24.2154 28.1838 24.3756 28.5816 24.8098C28.6332 24.8873 28.752 25.5748 28.3336 26.3655C28.0236 26.9496 27.3985 27.4406 26.5771 27.7507C25.8022 28.0453 24.9447 28.1642 23.8908 28.128C23.8443 28.097 22.9041 27.4613 22.9041 27.4613C22.0672 26.8721 21.0288 26.1433 20.0834 25.7867C19.9181 25.7246 19.6236 25.4766 19.4428 25.3267L19.3446 25.2491C18.8022 24.815 17.769 24.1224 16.9373 23.5694C16.9373 23.5694 16.5601 23.3161 16.4878 23.2696C16.4878 23.2386 16.4878 23.1765 16.4878 23.1765C16.5137 23.1507 17.0354 22.8354 17.0354 22.8354C17.7638 22.4064 18.1048 22.1997 18.1771 22.0911C18.1616 22.1067 18.2753 22.0343 18.2753 22.0343C18.2804 22.0343 20.0886 21.0109 20.0886 21.0109C21.8295 20.0547 23.7978 18.9693 24.831 17.8994L24.8827 17.7341L24.9033 17.5893C24.9705 17.3619 24.9756 17.1862 24.9188 16.9794C24.9033 16.9226 24.8517 16.8554 24.7793 16.8399C23.9734 16.7572 22.9299 17.243 21.9793 18.132C21.7675 18.3336 21.5867 18.4318 21.3956 18.5352L21.2509 18.6179C20.2074 19.2123 17.8517 20.675 16.617 21.4658C16.6996 20.1374 16.9424 18.2509 17.2472 16.6797L17.2111 16.4936L17.0819 16.2558L16.9838 16.0853H16.9579C16.71 15.9561 16.5085 16.0026 16.3638 16.0388L16.1159 16.1318L15.7852 16.2507C15.7181 16.2662 15.6768 16.3024 15.6509 16.3644C15.062 17.7909 14.5712 20.1323 14.4524 22.0033C13.2745 21.2538 12.1897 20.7163 11.6524 20.4579L11.6369 20.4475L11.5749 20.432C11.3838 20.4062 11.1461 20.2666 10.924 20.1271C10.8982 20.1116 10.4745 19.8377 10.4745 19.8377L9.79262 19.3983L9.61181 19.357C9.31734 19.4087 8.75424 19.786 8.58893 20.0444C8.56827 20.0806 8.55793 20.1168 8.55793 20.1529C8.55793 20.2098 8.57343 20.2615 8.58893 20.3132L8.61993 20.4527L8.65092 20.5354C8.98155 20.8714 9.80812 21.4296 10.6192 21.8689L11.5594 22.3651L13.0007 23.1507L13.2435 23.3471L13.414 23.4453C13.414 23.4453 13.4347 23.4556 13.445 23.466C13.0627 23.7244 10.8258 25.2181 10.8258 25.2181L9.45166 26.133C9.32251 26.2208 8.78007 26.4637 8.65609 26.5154C8.35646 26.6395 8.13432 26.8255 8.03616 27.0271L8 27.1046L8.03616 27.1563L8.13948 27.2339L8.27897 27.3269L8.42878 27.4303L8.57343 27.4509C8.81624 27.4613 9.17269 27.3217 9.84428 27.0271C10.459 26.7532 12.1328 25.7453 12.8458 25.3163L13.1506 25.1354C13.2745 25.1458 13.414 25.0372 13.538 24.9442C13.6827 24.8305 13.9926 24.6392 14.1838 24.5565C14.1889 24.5565 14.2974 24.4945 14.4007 24.4377C14.4007 24.4687 14.4007 24.5204 14.4007 24.5204C14.4317 26.7067 14.5557 28.2986 14.7985 29.5235V29.5442L14.8244 29.5959C14.9432 29.7665 15.0775 30.2885 15.1963 30.7433L15.4701 31.6581L15.5476 31.746C15.7026 31.8494 16.1779 32.0355 16.493 31.9941L16.5705 31.9838L16.6221 31.8752C16.648 31.7408 16.6583 31.6065 16.6583 31.4566C16.6583 31.2912 16.648 31.1051 16.6325 30.8829L16.6118 30.5521C16.5137 29.0274 16.4103 26.8204 16.4103 25.3525V25.2336C16.6686 25.3939 17.8052 26.1123 17.8052 26.1123C19.7373 27.3631 22.6509 29.2599 24.4125 29.7613C24.5055 29.7871 24.5985 29.7665 24.6657 29.7044L24.9343 29.5287L24.986 29.508C25.0893 29.4615 25.1565 29.2909 25.1668 29.1049C26.6546 29.0325 28.7262 28.4588 29.8317 27.0633C30.2605 26.5206 30.4517 25.859 30.4517 25.2957C30.4517 24.8305 30.3225 24.4325 30.09 24.2103" fill="#FCAF16"/>
<path d="M68.6804 27.8387H62.2074V25.5542H68.6804V27.8387ZM70.0391 24.3706H60.8487V29.0275H70.0391V24.3706Z" fill="#776C61"/>
<path d="M69.9823 21.8532V18.2197H60.9107V19.393H68.6133V21.8584H59.8723V23.0368H71.0155V21.8532H69.9823Z" fill="#776C61"/>
<path d="M83.0524 23.8279V22.6495H71.9196V23.8279H74.4664V25.1045C73.4746 25.518 72.8495 26.1796 72.8495 27.1048C72.8495 28.7742 74.9262 29.6167 77.4834 29.6167C80.0406 29.6167 82.1174 28.7742 82.1174 27.1048C82.1174 26.1899 81.4974 25.5284 80.5262 25.1149V23.8227H83.0576L83.0524 23.8279ZM75.8303 23.8279H79.1624V24.7376C78.6406 24.6497 78.0775 24.6032 77.4834 24.6032C76.8893 24.6032 76.3469 24.6497 75.8303 24.7324V23.8279ZM80.6812 27.1099C80.6812 28.0351 79.245 28.4486 77.4783 28.4486C75.7115 28.4486 74.2753 28.0351 74.2753 27.1099C74.2753 26.1848 75.7063 25.7764 77.4783 25.7764C79.2502 25.7764 80.6812 26.1951 80.6812 27.1099ZM77.4886 22.1378C79.7616 22.1378 81.6059 21.3625 81.6059 19.8274C81.6059 18.2924 79.7616 17.5171 77.4886 17.5171C75.2155 17.5171 73.3712 18.2769 73.3712 19.8274C73.3712 21.378 75.2155 22.1378 77.4886 22.1378ZM77.4834 18.6697C78.9661 18.6697 80.1698 19.0315 80.1698 19.8274C80.1698 20.6234 78.9661 20.9852 77.4834 20.9852C76.0008 20.9852 74.7971 20.6286 74.7971 19.8274C74.7971 19.0263 75.9956 18.6697 77.4834 18.6697Z" fill="#776C61"/>
<path d="M92.7491 26.8927V18.4111H84.1114V19.5844H91.3801V26.8927H83.3469V28.0608H93.772V26.8927H92.7491Z" fill="#776C61"/>
<path d="M94.8672 23.4298V24.5979H99.7956V25.5644H101.185V24.5979H106V23.4298H94.8672ZM103.732 25.9055H97.1196V25.1096H95.7867V29.0118H105.075V25.1096H103.732V25.9055ZM103.737 27.8592H97.1196V27.0374H103.737V27.8592ZM105.013 21.719H97.1402V21.0884H104.982V18.2302H95.8074V19.3776H103.649V19.972H95.8074V22.8613H105.008V21.7138L105.013 21.719Z" fill="#776C61"/>
<path d="M35.5609 18.2144H37.2915V23.078L43.1343 18.2144H45.5882L39.4199 23.1245L46.1048 29.0838H43.6458L37.2915 23.2589V29.0838H35.5609V18.2144Z" fill="#776C61"/>
<path d="M47.3137 18.2144H52.6554C55.1971 18.2144 56.5247 19.0568 56.5247 20.902C56.5247 22.2148 55.6103 23.1193 54.3912 23.3622V23.4088C56.1373 23.6155 56.9638 24.7629 56.9638 26.0602C56.9638 27.6832 55.7757 29.089 52.8258 29.089H47.3137V18.2144ZM49.0443 22.7937H52.5675C53.8797 22.7937 54.8458 22.2975 54.8458 21.1398C54.8458 20.1267 54.3705 19.4548 52.3712 19.4548H49.0443V22.7937ZM49.0443 27.8537H52.459C54.5823 27.8537 55.1402 27.0267 55.1402 25.9724C55.1402 24.7216 54.2775 24.029 52.3661 24.029H49.0391V27.8537H49.0443Z" fill="#776C61"/>
</svg>
